<?xml version="1.0" encoding="UTF-8"?>
<svg width="314px" height="172px" viewBox="0 0 314 172" version="1.1" xmlns="http://www.w3.org/2000/svg" xmlns:xlink="http://www.w3.org/1999/xlink">
    <!-- Generator: Sketch 49.3 (51167) - http://www.bohemiancoding.com/sketch -->
    <title>暂无网络</title>
    <desc>Created with Sketch.</desc>
    <defs>
        <linearGradient x1="59.5404506%" y1="-5.5146382%" x2="59.5404506%" y2="100%" id="linearGradient-1">
            <stop stop-color="#F3F3F3" offset="0%"></stop>
            <stop stop-color="#FFFFFF" offset="100%"></stop>
        </linearGradient>
        <linearGradient x1="5.62326363%" y1="0%" x2="23.2510784%" y2="91.1433868%" id="linearGradient-2">
            <stop stop-color="#F9F9F9" offset="0%"></stop>
            <stop stop-color="#D2D2D2" offset="100%"></stop>
        </linearGradient>
        <linearGradient x1="50%" y1="0%" x2="50%" y2="100%" id="linearGradient-3">
            <stop stop-color="#EEEEEE" offset="0%"></stop>
            <stop stop-color="#D2D2D2" offset="100%"></stop>
        </linearGradient>
        <linearGradient x1="100%" y1="31.2819352%" x2="0%" y2="31.2819362%" id="linearGradient-4">
            <stop stop-color="#F6F6F6" offset="0%"></stop>
            <stop stop-color="#E0E0E0" offset="100%"></stop>
        </linearGradient>
        <linearGradient x1="100%" y1="29.0346056%" x2="1.95779317%" y2="29.0346056%" id="linearGradient-5">
            <stop stop-color="#F8F8F8" offset="0%"></stop>
            <stop stop-color="#E1E1E1" offset="100%"></stop>
        </linearGradient>
        <linearGradient x1="100%" y1="32.8295308%" x2="0%" y2="32.829532%" id="linearGradient-6">
            <stop stop-color="#E9E9E9" offset="0%"></stop>
            <stop stop-color="#E8E8E8" offset="100%"></stop>
        </linearGradient>
        <linearGradient x1="81.9642654%" y1="73.1058959%" x2="17.5565398%" y2="24.0143833%" id="linearGradient-7">
            <stop stop-color="#C8C8C8" offset="0%"></stop>
            <stop stop-color="#D8D8D8" offset="100%"></stop>
        </linearGradient>
    </defs>
    <g id="Page-5" stroke="none" stroke-width="1" fill="none" fill-rule="evenodd">
        <g id="Desktop-HD" transform="translate(-517.000000, -800.000000)">
            <g id="暂无网络" transform="translate(517.000000, 800.000000)">
                <path d="M0.676215055,133 C-3.92196516,98.1528449 15.3619545,66.2221084 45.3765324,60.4080679 C66.2363188,56.3673766 87.0324391,65.9576027 100.744033,83.6059055 C101.060891,81.6857186 101.424807,79.7589903 101.836728,77.8277674 C112.573008,27.4924406 151.854693,-6.83531144 189.574825,1.15458731 C223.591842,8.36009012 244.721937,47.5214593 240.66841,92.059547 C249.224624,81.9071027 260.573161,75.9541053 272.720934,76.5885386 C295.918619,77.800068 313.698,102.598563 314,133 L0.676215055,133 Z" id="Combined-Shape" fill="url(#linearGradient-1)"></path>
                <ellipse id="Oval-2" fill="#F9F9F9" cx="157" cy="142" rx="99" ry="30"></ellipse>
                <path d="M234,149 L240.772897,149 L244.634159,153.665692 C245.19514,154.343544 245.100397,155.347815 244.422546,155.908795 C244.136856,156.145228 243.777637,156.274593 243.406801,156.274593 L241.902154,156.274593 C240.710274,156.274593 239.580481,155.743081 238.820577,154.824864 L234,149 Z" id="Rectangle-6-Copy" fill="url(#linearGradient-2)"></path>
                <path d="M94.4636637,122 L97.2567671,122 L98.8491295,123.924104 C99.0804745,124.203646 99.0414032,124.617802 98.7618613,124.849147 C98.6440445,124.946651 98.4959045,125 98.342974,125 L98.342974,125 C97.4584375,125 96.619978,124.605546 96.056026,123.924104 L94.4636637,122 Z" id="Rectangle-6-Copy-2" fill="url(#linearGradient-2)"></path>
                <g id="Group-Copy-2" transform="translate(93.000000, 106.000000)">
                    <rect id="Rectangle-4" fill="#C8C8C8" x="4" y="9" width="2" height="10" rx="1"></rect>
                    <path d="M5,0 L5,0 C7.76142375,-5.07265313e-16 10,2.23857625 10,5 L10,12 C10,13.1045695 9.1045695,14 8,14 L2,14 C0.8954305,14 1.3527075e-16,13.1045695 0,12 L0,5 C-3.38176876e-16,2.23857625 2.23857625,5.07265313e-16 5,0 Z" id="Rectangle-5" fill="url(#linearGradient-3)"></path>
                </g>
                <path d="M80,125.129487 L117.096662,116 L126.463274,139.018949 C127.429181,141.392717 126.287884,144.100058 123.914116,145.065965 C123.358724,145.291959 122.764797,145.40817 122.165186,145.40817 L121.675362,145.40817 C117.476842,145.40817 113.351778,144.306762 109.712054,142.21392 L80,125.129487 Z" id="Rectangle-6" fill="url(#linearGradient-2)"></path>
                <path d="M176,125.129487 L213.096662,116 L222.463274,139.018949 C223.429181,141.392717 222.287884,144.100058 219.914116,145.065965 C219.358724,145.291959 218.764797,145.40817 218.165186,145.40817 L217.675362,145.40817 C213.476842,145.40817 209.351778,144.306762 205.712054,142.21392 L176,125.129487 Z" id="Rectangle-6-Copy-4" fill="url(#linearGradient-2)"></path>
                <g id="Group-3" transform="translate(75.000000, 30.000000)">
                    <path d="M85.3761951,120.997233 C85.6764046,121.06309 114.217673,94.9961107 171,42.7962941 C149.800887,19.5704647 119.289088,5 85.3761951,5 C51.5951133,5 21.1887394,19.4574207 0,42.5258665 C56.8010258,95.1526196 85.2597575,121.309742 85.3761951,120.997233 Z" id="Oval-3" fill="#D0D0D0"></path>
                    <path d="M90.3761951,115.997233 C90.6764046,116.06309 119.217673,89.9961107 176,37.7962941 C154.800887,14.5704647 124.289088,0 90.3761951,0 C56.5951133,0 26.1887394,14.4574207 5,37.5258665 C61.8010258,90.1526196 90.2597575,116.309742 90.3761951,115.997233 Z" id="Oval-3-Copy" fill="url(#linearGradient-4)"></path>
                    <path d="M88.5867577,117 L148,62.6009925 C133.60768,47.5336642 113.93889,40 88.9936291,40 C64.0483682,40 44.3838252,47.6846542 30,63.0539625 L88.5867577,117 Z" id="Oval-3-Copy-2" fill="url(#linearGradient-5)"></path>
                    <path d="M89.8941166,117 L121,88.4340165 C110.573608,80.8057195 100.204981,76.9943827 89.8941166,77.0000062 C79.5832525,77.0056297 69.2852137,80.828238 59,88.4678311 L89.8941166,117 Z" id="Oval-3-Copy-3" fill="url(#linearGradient-6)"></path>
                </g>
                <path d="M133.210926,131.776935 L126.242792,131.776935 L126.242792,145.033384 L114.388467,145.033384 L114.388467,131.776935 L90,131.776935 L90,121.197269 L112.646434,83.8072838 L126.242792,83.8072838 L126.242792,122.301973 L133.210926,122.301973 L133.210926,131.776935 Z M114.388467,122.301973 L114.388467,95.7040971 L98.9650986,122.301973 L114.388467,122.301973 Z M152.925645,131.075873 C154.087006,134.829053 156.466345,136.705615 160.063733,136.705615 C163.661121,136.705615 166.019215,134.829053 167.138088,131.075873 C168.256961,127.322692 168.816388,121.905448 168.816388,114.823976 C168.816388,107.402593 168.256961,101.907453 167.138088,98.3383915 C166.019215,94.7693297 163.661121,92.9848255 160.063733,92.9848255 C156.466345,92.9848255 154.087006,94.7693297 152.925645,98.3383915 C151.764284,101.907453 151.183612,107.402593 151.183612,114.823976 C151.183612,121.905448 151.764284,127.322692 152.925645,131.075873 Z M176.570561,91.2852807 C179.728898,96.8088288 181.308042,104.654982 181.308042,114.823976 C181.308042,124.992969 179.728898,132.82496 176.570561,138.320182 C173.412225,143.815404 167.910004,146.562974 160.063733,146.562974 C152.217462,146.562974 146.715241,143.815404 143.556904,138.320182 C140.398568,132.82496 138.819423,124.992969 138.819423,114.823976 C138.819423,104.654982 140.398568,96.8088288 143.556904,91.2852807 C146.715241,85.7617326 152.217462,83 160.063733,83 C167.910004,83 173.412225,85.7617326 176.570561,91.2852807 Z M230,131.776935 L223.031866,131.776935 L223.031866,145.033384 L211.177542,145.033384 L211.177542,131.776935 L186.789074,131.776935 L186.789074,121.197269 L209.435508,83.8072838 L223.031866,83.8072838 L223.031866,122.301973 L230,122.301973 L230,131.776935 Z M211.177542,122.301973 L211.177542,95.7040971 L195.754173,122.301973 L211.177542,122.301973 Z" id="404" fill="#D2D2D2"></path>
                <path d="M135.210926,131.776935 L128.242792,131.776935 L128.242792,145.033384 L116.388467,145.033384 L116.388467,131.776935 L92,131.776935 L92,121.197269 L114.646434,83.8072838 L128.242792,83.8072838 L128.242792,122.301973 L135.210926,122.301973 L135.210926,131.776935 Z M116.388467,122.301973 L116.388467,95.7040971 L100.965099,122.301973 L116.388467,122.301973 Z M154.925645,131.075873 C156.087006,134.829053 158.466345,136.705615 162.063733,136.705615 C165.661121,136.705615 168.019215,134.829053 169.138088,131.075873 C170.256961,127.322692 170.816388,121.905448 170.816388,114.823976 C170.816388,107.402593 170.256961,101.907453 169.138088,98.3383915 C168.019215,94.7693297 165.661121,92.9848255 162.063733,92.9848255 C158.466345,92.9848255 156.087006,94.7693297 154.925645,98.3383915 C153.764284,101.907453 153.183612,107.402593 153.183612,114.823976 C153.183612,121.905448 153.764284,127.322692 154.925645,131.075873 Z M178.570561,91.2852807 C181.728898,96.8088288 183.308042,104.654982 183.308042,114.823976 C183.308042,124.992969 181.728898,132.82496 178.570561,138.320182 C175.412225,143.815404 169.910004,146.562974 162.063733,146.562974 C154.217462,146.562974 148.715241,143.815404 145.556904,138.320182 C142.398568,132.82496 140.819423,124.992969 140.819423,114.823976 C140.819423,104.654982 142.398568,96.8088288 145.556904,91.2852807 C148.715241,85.7617326 154.217462,83 162.063733,83 C169.910004,83 175.412225,85.7617326 178.570561,91.2852807 Z M232,131.776935 L225.031866,131.776935 L225.031866,145.033384 L213.177542,145.033384 L213.177542,131.776935 L188.789074,131.776935 L188.789074,121.197269 L211.435508,83.8072838 L225.031866,83.8072838 L225.031866,122.301973 L232,122.301973 L232,131.776935 Z M213.177542,122.301973 L213.177542,95.7040971 L197.754173,122.301973 L213.177542,122.301973 Z" id="404-copy" fill="#FFFFFF"></path>
                <g id="Group" transform="translate(233.000000, 122.000000)">
                    <rect id="Rectangle-4" fill="#C8C8C8" x="6" y="20" width="6" height="15" rx="3"></rect>
                    <path d="M9,0 L9,0 C13.9705627,-9.13077564e-16 18,4.02943725 18,9 L18,22 C18,23.1045695 17.1045695,24 16,24 L2,24 C0.8954305,24 1.3527075e-16,23.1045695 0,22 L0,9 C-6.08718376e-16,4.02943725 4.02943725,9.13077564e-16 9,0 Z" id="Rectangle-5" fill="url(#linearGradient-3)"></path>
                </g>
                <circle id="Oval-4" fill="url(#linearGradient-7)" cx="166" cy="67" r="5"></circle>
                <circle id="Oval-4-Copy" fill="url(#linearGradient-7)" cx="225" cy="86" r="3"></circle>
                <circle id="Oval-4-Copy-2" fill="url(#linearGradient-7)" cx="189.5" cy="146.5" r="5.5"></circle>
                <circle id="Oval-4-Copy-3" fill="url(#linearGradient-7)" cx="87" cy="106" r="2"></circle>
                <path d="M62,145 L66.9257432,145 L69.7339341,148.393231 C70.1419199,148.886213 70.0730162,149.616593 69.5800334,150.024578 C69.3722591,150.19653 69.1110087,150.290613 68.84131,150.290613 L68.2602398,150.290613 C67.0683597,150.290613 65.9385668,149.759102 65.1786625,148.840884 L62,145 Z" id="Rectangle-6-Copy-3" fill="url(#linearGradient-2)"></path>
                <g id="Group-Copy" transform="translate(61.000000, 127.000000)">
                    <rect id="Rectangle-4" fill="#C8C8C8" x="5" y="14" width="4" height="10" rx="2"></rect>
                    <path d="M7,0 L7,0 C10.8659932,-7.10171439e-16 14,3.13400675 14,7 L14,15 C14,16.1045695 13.1045695,17 12,17 L2,17 C0.8954305,17 1.3527075e-16,16.1045695 0,15 L0,7 C-4.73447626e-16,3.13400675 3.13400675,7.10171439e-16 7,0 Z" id="Rectangle-5" fill="url(#linearGradient-3)"></path>
                </g>
            </g>
        </g>
    </g>
</svg>