<?xml version="1.0" encoding="UTF-8"?>
<svg width="314px" height="172px" viewBox="0 0 314 172" version="1.1" xmlns="http://www.w3.org/2000/svg" xmlns:xlink="http://www.w3.org/1999/xlink">
    <!-- Generator: Sketch 49.3 (51167) - http://www.bohemiancoding.com/sketch -->
    <title>暂无数据</title>
    <desc>Created with Sketch.</desc>
    <defs>
        <linearGradient x1="59.5404506%" y1="-5.5146382%" x2="59.5404506%" y2="100%" id="linearGradient-1">
            <stop stop-color="#F3F3F3" offset="0%"></stop>
            <stop stop-color="#FFFFFF" offset="100%"></stop>
        </linearGradient>
        <linearGradient x1="5.62326363%" y1="0%" x2="23.2510784%" y2="91.1433868%" id="linearGradient-2">
            <stop stop-color="#F9F9F9" offset="0%"></stop>
            <stop stop-color="#D2D2D2" offset="100%"></stop>
        </linearGradient>
        <linearGradient x1="50%" y1="0%" x2="50%" y2="100%" id="linearGradient-3">
            <stop stop-color="#E1E1E1" offset="0%"></stop>
            <stop stop-color="#F3F3F3" offset="100%"></stop>
        </linearGradient>
        <linearGradient x1="50%" y1="8.50014503e-15%" x2="50%" y2="72.2853208%" id="linearGradient-4">
            <stop stop-color="#E2E2E2" offset="0%"></stop>
            <stop stop-color="#D2D2D2" offset="100%"></stop>
        </linearGradient>
        <linearGradient x1="0%" y1="50%" x2="5.66407246%" y2="50%" id="linearGradient-5">
            <stop stop-color="#D2D2D2" offset="0%"></stop>
            <stop stop-color="#D2D2D2" offset="100%"></stop>
        </linearGradient>
        <linearGradient x1="42.1040189%" y1="0%" x2="42.1040177%" y2="100%" id="linearGradient-6">
            <stop stop-color="#E3E3E3" offset="0%"></stop>
            <stop stop-color="#D2D2D2" offset="100%"></stop>
        </linearGradient>
        <linearGradient x1="50%" y1="0%" x2="50%" y2="100%" id="linearGradient-7">
            <stop stop-color="#EEEEEE" offset="0%"></stop>
            <stop stop-color="#D2D2D2" offset="100%"></stop>
        </linearGradient>
    </defs>
    <g id="Page-5" stroke="none" stroke-width="1" fill="none" fill-rule="evenodd">
        <g id="Desktop-HD" transform="translate(-937.000000, -426.000000)">
            <g id="暂无数据" transform="translate(937.000000, 426.000000)">
                <path d="M0.676215055,133 C-3.92196516,98.1528449 15.3619545,66.2221084 45.3765324,60.4080679 C66.2363188,56.3673766 87.0324391,65.9576027 100.744033,83.6059055 C101.060891,81.6857186 101.424807,79.7589903 101.836728,77.8277674 C112.573008,27.4924406 151.854693,-6.83531144 189.574825,1.15458731 C223.591842,8.36009012 244.721937,47.5214593 240.66841,92.059547 C249.224624,81.9071027 260.573161,75.9541053 272.720934,76.5885386 C295.918619,77.800068 313.698,102.598563 314,133 L0.676215055,133 Z" id="Combined-Shape" fill="url(#linearGradient-1)"></path>
                <ellipse id="Oval-2" fill="#F9F9F9" cx="157" cy="142" rx="99" ry="30"></ellipse>
                <path d="M88,119 L171,119 L189.579086,141.449729 C190.987562,143.151637 190.749688,145.673102 189.04778,147.081577 C188.330487,147.675199 187.428581,148 186.497509,148 L113.881801,148 C112.689921,148 111.560128,147.468489 110.800224,146.550271 L88,119 Z" id="Rectangle-6" fill="url(#linearGradient-2)"></path>
                <path d="M69,151 L75.7728969,151 L79.6341595,155.665692 C80.1951398,156.343544 80.1003972,157.347815 79.422546,157.908795 C79.1368562,158.145228 78.7776369,158.274593 78.4068012,158.274593 L76.9021542,158.274593 C75.7102741,158.274593 74.5804812,157.743081 73.8205769,156.824864 L69,151 Z" id="Rectangle-6-Copy" fill="url(#linearGradient-2)"></path>
                <path d="M223,126.98398 L227.925743,126.98398 L230.733934,130.377211 C231.14192,130.870193 231.073016,131.600573 230.580033,132.008558 C230.372259,132.180509 230.111009,132.274593 229.84131,132.274593 L229.26024,132.274593 C228.06836,132.274593 226.938567,131.743081 226.178663,130.824864 L223,126.98398 Z" id="Rectangle-6-Copy-3" fill="url(#linearGradient-2)"></path>
                <path d="M94.4636637,122 L97.2567671,122 L98.8491295,123.924104 C99.0804745,124.203646 99.0414032,124.617802 98.7618613,124.849147 C98.6440445,124.946651 98.4959045,125 98.342974,125 L98.342974,125 C97.4584375,125 96.619978,124.605546 96.056026,123.924104 L94.4636637,122 Z" id="Rectangle-6-Copy-2" fill="url(#linearGradient-2)"></path>
                <rect id="Rectangle" fill="#D2D2D2" x="107" y="34" width="86" height="114" rx="10"></rect>
                <rect id="Rectangle-Copy-2" fill="#E1E1E1" x="111" y="34" width="86" height="114" rx="4"></rect>
                <rect id="Rectangle-Copy" fill="#FAFAFA" x="119" y="42" width="70" height="98" rx="2"></rect>
                <rect id="Rectangle-2" fill="url(#linearGradient-3)" x="131" y="67" width="12" height="8" rx="2"></rect>
                <rect id="Rectangle-2-Copy" fill="url(#linearGradient-3)" x="149" y="67" width="28" height="8" rx="2"></rect>
                <rect id="Rectangle-2-Copy-2" fill="url(#linearGradient-3)" x="131" y="85" width="46" height="8" rx="2"></rect>
                <rect id="Rectangle-2-Copy-3" fill="url(#linearGradient-3)" x="131" y="103" width="46" height="8" rx="2"></rect>
                <circle id="Oval" fill="url(#linearGradient-4)" cx="154" cy="30" r="5"></circle>
                <path d="M131.022247,30 L177.022247,30 C179.231386,30 181.022247,31.790861 181.022247,34 L181.022247,42 C181.022247,44.209139 179.231386,46 177.022247,46 C159.348165,46 141.674082,46 124,46 C124.039792,44.6313453 124.005965,43.6774523 124.000178,43.6774523 C125.833752,43.6774523 126.841108,43.1183015 127.022247,42 L127.022247,34 C127.022247,31.790861 128.813108,30 131.022247,30 Z" id="Rectangle-3" fill="url(#linearGradient-5)"></path>
                <path d="M133.022069,30.0000173 L177.022245,30 C179.231384,29.9999992 181.022246,31.7908596 181.022247,33.9999986 C181.022247,33.999999 181.022247,33.9999995 181.022247,34 L181.022245,42.0000188 C181.022245,44.2091578 179.231384,46.0000188 177.022245,46.0000188 C160.01483,46.0000188 143.007415,46.0000188 126,46.0000188 C127.753521,45.4317698 128.760878,44.0984365 129.022069,42.0000188 L129.02207,34.0000188 C129.02207,31.7908803 130.812931,30.0000196 133.022069,30.0000188 Z" id="Rectangle-3-Copy" fill="url(#linearGradient-6)"></path>
                <g id="Group" transform="translate(68.000000, 124.000000)">
                    <rect id="Rectangle-4" fill="#C8C8C8" x="6" y="20" width="6" height="15" rx="3"></rect>
                    <path d="M9,0 L9,0 C13.9705627,-9.13077564e-16 18,4.02943725 18,9 L18,22 C18,23.1045695 17.1045695,24 16,24 L2,24 C0.8954305,24 1.3527075e-16,23.1045695 0,22 L0,9 C-6.08718376e-16,4.02943725 4.02943725,9.13077564e-16 9,0 Z" id="Rectangle-5" fill="url(#linearGradient-7)"></path>
                </g>
                <g id="Group-Copy-2" transform="translate(93.000000, 106.000000)">
                    <rect id="Rectangle-4" fill="#C8C8C8" x="4" y="9" width="2" height="10" rx="1"></rect>
                    <path d="M5,0 L5,0 C7.76142375,-5.07265313e-16 10,2.23857625 10,5 L10,12 C10,13.1045695 9.1045695,14 8,14 L2,14 C0.8954305,14 1.3527075e-16,13.1045695 0,12 L0,5 C-3.38176876e-16,2.23857625 2.23857625,5.07265313e-16 5,0 Z" id="Rectangle-5" fill="url(#linearGradient-7)"></path>
                </g>
                <g id="Group-Copy" transform="translate(222.000000, 109.000000)">
                    <rect id="Rectangle-4" fill="#C8C8C8" x="5" y="14" width="4" height="10" rx="2"></rect>
                    <path d="M7,0 L7,0 C10.8659932,-7.10171439e-16 14,3.13400675 14,7 L14,15 C14,16.1045695 13.1045695,17 12,17 L2,17 C0.8954305,17 1.3527075e-16,16.1045695 0,15 L0,7 C-4.73447626e-16,3.13400675 3.13400675,7.10171439e-16 7,0 Z" id="Rectangle-5" fill="url(#linearGradient-7)"></path>
                </g>
            </g>
        </g>
    </g>
</svg>