<?xml version="1.0" encoding="UTF-8"?>
<svg width="314px" height="172px" viewBox="0 0 314 172" version="1.1" xmlns="http://www.w3.org/2000/svg" xmlns:xlink="http://www.w3.org/1999/xlink">
    <!-- Generator: Sketch 49.3 (51167) - http://www.bohemiancoding.com/sketch -->
    <title>暂无权限</title>
    <desc>Created with Sketch.</desc>
    <defs>
        <linearGradient x1="59.5404506%" y1="-5.5146382%" x2="59.5404506%" y2="100%" id="linearGradient-1">
            <stop stop-color="#F3F3F3" offset="0%"></stop>
            <stop stop-color="#FFFFFF" offset="100%"></stop>
        </linearGradient>
        <linearGradient x1="5.62326363%" y1="0%" x2="23.2510784%" y2="91.1433868%" id="linearGradient-2">
            <stop stop-color="#F9F9F9" offset="0%"></stop>
            <stop stop-color="#D2D2D2" offset="100%"></stop>
        </linearGradient>
        <linearGradient x1="50%" y1="0%" x2="50%" y2="100%" id="linearGradient-3">
            <stop stop-color="#EEEEEE" offset="0%"></stop>
            <stop stop-color="#D2D2D2" offset="100%"></stop>
        </linearGradient>
        <linearGradient x1="50%" y1="0%" x2="50%" y2="100%" id="linearGradient-4">
            <stop stop-color="#E3E3E3" offset="0%"></stop>
            <stop stop-color="#FAFAFA" offset="100%"></stop>
        </linearGradient>
    </defs>
    <g id="Page-5" stroke="none" stroke-width="1" fill="none" fill-rule="evenodd">
        <g id="Desktop-HD" transform="translate(-937.000000, -696.000000)">
            <g id="暂无权限" transform="translate(937.000000, 696.000000)">
                <path d="M0.676215055,133 C-3.92196516,98.1528449 15.3619545,66.2221084 45.3765324,60.4080679 C66.2363188,56.3673766 87.0324391,65.9576027 100.744033,83.6059055 C101.060891,81.6857186 101.424807,79.7589903 101.836728,77.8277674 C112.573008,27.4924406 151.854693,-6.83531144 189.574825,1.15458731 C223.591842,8.36009012 244.721937,47.5214593 240.66841,92.059547 C249.224624,81.9071027 260.573161,75.9541053 272.720934,76.5885386 C295.918619,77.800068 313.698,102.598563 314,133 L0.676215055,133 Z" id="Combined-Shape" fill="url(#linearGradient-1)"></path>
                <ellipse id="Oval-2" fill="#F9F9F9" cx="157" cy="142" rx="99" ry="30"></ellipse>
                <path d="M69,151 L75.7728969,151 L79.6341595,155.665692 C80.1951398,156.343544 80.1003972,157.347815 79.422546,157.908795 C79.1368562,158.145228 78.7776369,158.274593 78.4068012,158.274593 L76.9021542,158.274593 C75.7102741,158.274593 74.5804812,157.743081 73.8205769,156.824864 L69,151 Z" id="Rectangle-6-Copy" fill="url(#linearGradient-2)"></path>
                <path d="M223,126.98398 L227.925743,126.98398 L230.733934,130.377211 C231.14192,130.870193 231.073016,131.600573 230.580033,132.008558 C230.372259,132.180509 230.111009,132.274593 229.84131,132.274593 L229.26024,132.274593 C228.06836,132.274593 226.938567,131.743081 226.178663,130.824864 L223,126.98398 Z" id="Rectangle-6-Copy-3" fill="url(#linearGradient-2)"></path>
                <path d="M94.4636637,122 L97.2567671,122 L98.8491295,123.924104 C99.0804745,124.203646 99.0414032,124.617802 98.7618613,124.849147 C98.6440445,124.946651 98.4959045,125 98.342974,125 L98.342974,125 C97.4584375,125 96.619978,124.605546 96.056026,123.924104 L94.4636637,122 Z" id="Rectangle-6-Copy-2" fill="url(#linearGradient-2)"></path>
                <g id="Group" transform="translate(68.000000, 124.000000)">
                    <rect id="Rectangle-4" fill="#C8C8C8" x="6" y="20" width="6" height="15" rx="3"></rect>
                    <path d="M9,0 L9,0 C13.9705627,-9.13077564e-16 18,4.02943725 18,9 L18,22 C18,23.1045695 17.1045695,24 16,24 L2,24 C0.8954305,24 1.3527075e-16,23.1045695 0,22 L0,9 C-6.08718376e-16,4.02943725 4.02943725,9.13077564e-16 9,0 Z" id="Rectangle-5" fill="url(#linearGradient-3)"></path>
                </g>
                <g id="Group-Copy-2" transform="translate(93.000000, 106.000000)">
                    <rect id="Rectangle-4" fill="#C8C8C8" x="4" y="9" width="2" height="10" rx="1"></rect>
                    <path d="M5,0 L5,0 C7.76142375,-5.07265313e-16 10,2.23857625 10,5 L10,12 C10,13.1045695 9.1045695,14 8,14 L2,14 C0.8954305,14 1.3527075e-16,13.1045695 0,12 L0,5 C-3.38176876e-16,2.23857625 2.23857625,5.07265313e-16 5,0 Z" id="Rectangle-5" fill="url(#linearGradient-3)"></path>
                </g>
                <g id="Group-Copy" transform="translate(222.000000, 109.000000)">
                    <rect id="Rectangle-4" fill="#C8C8C8" x="5" y="14" width="4" height="10" rx="2"></rect>
                    <path d="M7,0 L7,0 C10.8659932,-7.10171439e-16 14,3.13400675 14,7 L14,15 C14,16.1045695 13.1045695,17 12,17 L2,17 C0.8954305,17 1.3527075e-16,16.1045695 0,15 L0,7 C-4.73447626e-16,3.13400675 3.13400675,7.10171439e-16 7,0 Z" id="Rectangle-5" fill="url(#linearGradient-3)"></path>
                </g>
                <path d="M90.2249815,119.898834 L143.472363,112.723424 L162.108117,149.378141 C163.76537,152.637797 162.466366,156.623739 159.206711,158.280992 C158.277055,158.753641 157.248896,159 156.205989,159 L153.052525,159 C148.081735,159 143.233582,157.456561 139.177656,154.582851 L90.2249815,119.898834 Z" id="Rectangle-6" fill="url(#linearGradient-2)"></path>
                <path d="M116.803219,60.0421947 C125.479816,58.9962786 131.273504,57.9320409 134.184284,56.8494817 C142.761925,53.6593382 145.185492,45 152.999998,45 C160.814503,45 162.452007,53.0540105 172.240573,56.8494817 C174.87649,57.8715462 180.541268,58.9235136 189.234909,60.005384 L189.234909,60.0053843 C194.241609,60.6284376 197.999995,64.8835214 197.999995,69.9288405 L198,111.576732 C198,113.186182 197.611531,114.771855 196.867592,116.19905 C181.993998,144.733017 167.371465,159 152.999995,159 C138.628526,159 124.005997,144.73302 109.132408,116.19906 L109.132407,116.199061 C108.388469,114.771867 108,113.186195 108,111.576746 L108.000002,69.9703198 C108.000002,64.910357 111.779624,60.6477616 116.803219,60.0421947 Z" id="Rectangle-7" fill="#D2D2D2"></path>
                <path d="M157,110 L160,110 C161.104569,110 162,110.895431 162,112 C162,113.104569 161.104569,114 160,114 L157,114 L157,124 C157,126.209139 155.209139,128 153,128 L152,128 C149.790861,128 148,126.209139 148,124 L148,104.080742 C142.73726,102.067898 139,96.9703908 139,91 C139,83.2680135 145.268014,77 153,77 C160.731986,77 167,83.2680135 167,91 C167,97.3420413 162.782978,102.699144 157,104.420243 L157,110 Z" id="Combined-Shape" fill="url(#linearGradient-4)"></path>
                <path d="M120.803219,60.0421947 C129.479816,58.9962786 135.273504,57.9320409 138.184284,56.8494817 C146.761925,53.6593382 149.185492,45 156.999998,45 C164.814503,45 166.452007,53.0540105 176.240573,56.8494817 C178.87649,57.8715462 184.541268,58.9235136 193.234909,60.005384 C198.241609,60.6284376 201.999995,64.8835214 201.999995,69.9288405 L202,111.576732 C202,113.186182 201.611531,114.771855 200.867592,116.19905 C185.993998,144.733017 171.371465,159 156.999995,159 C142.628526,159 128.005997,144.73302 113.132408,116.19906 C112.388469,114.771867 112,113.186195 112,111.576746 L112.000002,69.9703198 C112.000002,64.910357 115.779624,60.6477616 120.803219,60.0421947 Z M161,110 L161,104.420243 C166.782978,102.699144 171,97.3420413 171,91 C171,83.2680135 164.731986,77 157,77 C149.268014,77 143,83.2680135 143,91 C143,96.9703908 146.73726,102.067898 152,104.080742 L152,124 C152,126.209139 153.790861,128 156,128 L157,128 C159.209139,128 161,126.209139 161,124 L161,114 L164,114 C165.104569,114 166,113.104569 166,112 C166,110.895431 165.104569,110 164,110 L161,110 Z" id="Combined-Shape" fill="#FAFAFA"></path>
                <path d="M120.803219,60.0421947 C129.479816,58.9962786 135.273504,57.9320409 138.184284,56.8494817 C146.761925,53.6593382 149.185492,45 156.999998,45 C164.814503,45 166.452007,53.0540105 176.240573,56.8494817 C178.87649,57.8715462 184.541268,58.9235136 193.234909,60.005384 C198.241609,60.6284376 201.999995,64.8835214 201.999995,69.9288405 L202,111.576732 C202,113.186182 201.611531,114.771855 200.867592,116.19905 C185.993998,144.733017 171.371465,159 156.999995,159 C142.628526,159 128.005997,144.73302 113.132408,116.19906 C112.388469,114.771867 112,113.186195 112,111.576746 L112.000002,69.9703198 C112.000002,64.910357 115.779624,60.6477616 120.803219,60.0421947 Z M126.721779,64.3204881 C121.734335,64.9632661 117.999996,69.2097695 117.999996,74.2384628 L118,110.379064 C118,111.948027 118.369178,113.494976 119.077687,114.894855 C131.934959,140.298285 144.575729,153 156.999995,153 C169.42426,153 182.065029,140.298289 194.922303,114.894866 C195.630814,113.494988 195.999993,111.948039 195.999993,110.379075 L195.999996,74.1969397 C195.999996,69.1823807 192.286043,64.9432172 187.315033,64.2837824 C180.39432,63.3657131 175.847697,62.4718416 173.675163,61.6021678 C165.191739,58.2062199 163.772569,51 156.999998,51 C150.227426,51 148.127002,58.7478289 140.693046,61.6021678 C138.29455,62.5230933 133.637461,63.4292001 126.721779,64.3204881 Z" id="Combined-Shape" fill="#E1E1E1"></path>
            </g>
        </g>
    </g>
</svg>